<svg xmlns="http://www.w3.org/2000/svg" viewBox="0 12.449999809265137 152.4499969482422 40.45000076293945" data-asc="1.05" width="152.4499969482422" height="40.45000076293945"><defs/><g><g><g transform="translate(0, 0)"><path fill="#FFF" d="M26.75 28.70Q26.75 31.75 25.35 34.27Q23.95 36.80 21.05 38.35Q18.15 39.90 13.85 39.90L8.55 39.90L8.55 52.50L0 52.50L0 17.40L13.85 17.40Q18.05 17.40 20.95 18.85Q23.85 20.30 25.30 22.85Q26.75 25.40 26.75 28.70M13.20 33.10Q15.65 33.10 16.85 31.95Q18.05 30.80 18.05 28.70Q18.05 26.60 16.85 25.45Q15.65 24.30 13.20 24.30L8.55 24.30L8.55 33.10L13.20 33.10ZM35.50 21.70Q33.25 21.70 31.83 20.38Q30.40 19.05 30.40 17.10Q30.40 15.10 31.83 13.77Q33.25 12.45 35.50 12.45Q37.70 12.45 39.13 13.77Q40.55 15.10 40.55 17.10Q40.55 19.05 39.13 20.38Q37.70 21.70 35.50 21.70M39.75 24.60L39.75 52.50L31.20 52.50L31.20 24.60L39.75 24.60ZM62.45 52.50L57.10 44.75L52.60 52.50L43.35 52.50L52.55 38.25L43.10 24.60L52.70 24.60L58.05 32.30L62.55 24.60L71.80 24.60L62.45 38.65L72.05 52.50L62.45 52.50ZM79.65 21.70Q77.40 21.70 75.97 20.38Q74.55 19.05 74.55 17.10Q74.55 15.10 75.97 13.77Q77.40 12.45 79.65 12.45Q81.85 12.45 83.28 13.77Q84.70 15.10 84.70 17.10Q84.70 19.05 83.28 20.38Q81.85 21.70 79.65 21.70M83.90 24.60L83.90 52.50L75.35 52.50L75.35 24.60L83.90 24.60ZM116.40 38.10Q116.40 39.30 116.25 40.60L96.90 40.60Q97.10 43.20 98.58 44.58Q100.05 45.95 102.20 45.95Q105.40 45.95 106.65 43.25L115.75 43.25Q115.05 46 113.22 48.20Q111.40 50.40 108.65 51.65Q105.90 52.90 102.50 52.90Q98.40 52.90 95.20 51.15Q92 49.40 90.20 46.15Q88.40 42.90 88.40 38.55Q88.40 34.20 90.17 30.95Q91.95 27.70 95.15 25.95Q98.35 24.20 102.50 24.20Q106.55 24.20 109.70 25.90Q112.85 27.60 114.63 30.75Q116.40 33.90 116.40 38.10M107.65 35.85Q107.65 33.65 106.15 32.35Q104.65 31.05 102.40 31.05Q100.25 31.05 98.78 32.30Q97.30 33.55 96.95 35.85L107.65 35.85ZM134.05 17.40Q139.60 17.40 143.75 19.60Q147.90 21.80 150.18 25.77Q152.45 29.75 152.45 34.95Q152.45 40.10 150.18 44.10Q147.90 48.10 143.72 50.30Q139.55 52.50 134.05 52.50L120.90 52.50L120.90 17.40L134.05 17.40M133.50 45.10Q138.35 45.10 141.05 42.45Q143.75 39.80 143.75 34.95Q143.75 30.10 141.05 27.40Q138.35 24.70 133.50 24.70L129.45 24.70L129.45 45.10L133.50 45.10Z"/></g></g></g></svg>